<svg width="77" height="26" viewBox="0 0 77 26" fill="none" xmlns="http://www.w3.org/2000/svg">
<path d="M11.625 2C5.20312 2 0 7.25 0 13.625C0 20.0469 5.20312 25.25 11.625 25.25C18 25.25 23.25 20.0469 23.25 13.625C23.25 7.25 18 2 11.625 2ZM17.7188 7.53125C20.7656 10.625 21 15.3125 18.6562 18.5938L6.65625 6.59375C9.9375 4.25 14.625 4.48438 17.7188 7.53125ZM5.48438 19.7656C2.4375 16.6719 2.20312 11.9844 4.54688 8.70312L16.5469 20.7031C13.2656 23.0469 8.57812 22.8125 5.48438 19.7656Z" fill="#EB4335"/>
<path d="M30.5098 3.63281C30.3457 3.60547 30.168 3.5918 29.9766 3.5918C29.2656 3.5918 28.7832 3.89453 28.5293 4.5V9H27.4453V2.66016H28.5L28.5176 3.39258C28.873 2.82617 29.377 2.54297 30.0293 2.54297C30.2402 2.54297 30.4004 2.57031 30.5098 2.625V3.63281Z" fill="black"/>
<path d="M34.0254 9.11719C33.166 9.11719 32.4668 8.83594 31.9277 8.27344C31.3887 7.70703 31.1191 6.95117 31.1191 6.00586V5.80664C31.1191 5.17773 31.2383 4.61719 31.4766 4.125C31.7188 3.62891 32.0547 3.24219 32.4844 2.96484C32.918 2.68359 33.3867 2.54297 33.8906 2.54297C34.7148 2.54297 35.3555 2.81445 35.8125 3.35742C36.2695 3.90039 36.498 4.67773 36.498 5.68945V6.14062H32.2031C32.2188 6.76562 32.4004 7.27148 32.748 7.6582C33.0996 8.04102 33.5449 8.23242 34.084 8.23242C34.4668 8.23242 34.791 8.1543 35.0566 7.99805C35.3223 7.8418 35.5547 7.63477 35.7539 7.37695L36.416 7.89258C35.8848 8.70898 35.0879 9.11719 34.0254 9.11719ZM33.8906 3.43359C33.4531 3.43359 33.0859 3.59375 32.7891 3.91406C32.4922 4.23047 32.3086 4.67578 32.2383 5.25H35.4141V5.16797C35.3828 4.61719 35.2344 4.19141 34.9688 3.89062C34.7031 3.58594 34.3438 3.43359 33.8906 3.43359Z" fill="black"/>
<path d="M38.9355 9H37.8516V0H38.9355V9Z" fill="black"/>
<path d="M44.5898 9C44.5273 8.875 44.4766 8.65234 44.4375 8.33203C43.9336 8.85547 43.332 9.11719 42.6328 9.11719C42.0078 9.11719 41.4941 8.94141 41.0918 8.58984C40.6934 8.23438 40.4941 7.78516 40.4941 7.24219C40.4941 6.58203 40.7441 6.07031 41.2441 5.70703C41.748 5.33984 42.4551 5.15625 43.3652 5.15625H44.4199V4.6582C44.4199 4.2793 44.3066 3.97852 44.0801 3.75586C43.8535 3.5293 43.5195 3.41602 43.0781 3.41602C42.6914 3.41602 42.3672 3.51367 42.1055 3.70898C41.8438 3.9043 41.7129 4.14062 41.7129 4.41797H40.623C40.623 4.10156 40.7344 3.79688 40.957 3.50391C41.1836 3.20703 41.4883 2.97266 41.8711 2.80078C42.2578 2.62891 42.6816 2.54297 43.1426 2.54297C43.873 2.54297 44.4453 2.72656 44.8594 3.09375C45.2734 3.45703 45.4883 3.95898 45.5039 4.59961V7.51758C45.5039 8.09961 45.5781 8.5625 45.7266 8.90625V9H44.5898ZM42.791 8.17383C43.1309 8.17383 43.4531 8.08594 43.7578 7.91016C44.0625 7.73438 44.2832 7.50586 44.4199 7.22461V5.92383H43.5703C42.2422 5.92383 41.5781 6.3125 41.5781 7.08984C41.5781 7.42969 41.6914 7.69531 41.918 7.88672C42.1445 8.07812 42.4355 8.17383 42.791 8.17383Z" fill="black"/>
<path d="M48.6738 1.125V2.66016H49.8574V3.49805H48.6738V7.42969C48.6738 7.68359 48.7266 7.875 48.832 8.00391C48.9375 8.12891 49.1172 8.19141 49.3711 8.19141C49.4961 8.19141 49.668 8.16797 49.8867 8.12109V9C49.6016 9.07812 49.3242 9.11719 49.0547 9.11719C48.5703 9.11719 48.2051 8.9707 47.959 8.67773C47.7129 8.38477 47.5898 7.96875 47.5898 7.42969V3.49805H46.4355V2.66016H47.5898V1.125H48.6738Z" fill="black"/>
<path d="M55.043 9C54.9805 8.875 54.9297 8.65234 54.8906 8.33203C54.3867 8.85547 53.7852 9.11719 53.0859 9.11719C52.4609 9.11719 51.9473 8.94141 51.5449 8.58984C51.1465 8.23438 50.9473 7.78516 50.9473 7.24219C50.9473 6.58203 51.1973 6.07031 51.6973 5.70703C52.2012 5.33984 52.9082 5.15625 53.8184 5.15625H54.873V4.6582C54.873 4.2793 54.7598 3.97852 54.5332 3.75586C54.3066 3.5293 53.9727 3.41602 53.5312 3.41602C53.1445 3.41602 52.8203 3.51367 52.5586 3.70898C52.2969 3.9043 52.166 4.14062 52.166 4.41797H51.0762C51.0762 4.10156 51.1875 3.79688 51.4102 3.50391C51.6367 3.20703 51.9414 2.97266 52.3242 2.80078C52.7109 2.62891 53.1348 2.54297 53.5957 2.54297C54.3262 2.54297 54.8984 2.72656 55.3125 3.09375C55.7266 3.45703 55.9414 3.95898 55.957 4.59961V7.51758C55.957 8.09961 56.0312 8.5625 56.1797 8.90625V9H55.043ZM53.2441 8.17383C53.584 8.17383 53.9062 8.08594 54.2109 7.91016C54.5156 7.73438 54.7363 7.50586 54.873 7.22461V5.92383H54.0234C52.6953 5.92383 52.0312 6.3125 52.0312 7.08984C52.0312 7.42969 52.1445 7.69531 52.3711 7.88672C52.5977 8.07812 52.8887 8.17383 53.2441 8.17383Z" fill="black"/>
<path d="M60.7207 3.63281C60.5566 3.60547 60.3789 3.5918 60.1875 3.5918C59.4766 3.5918 58.9941 3.89453 58.7402 4.5V9H57.6562V2.66016H58.7109L58.7285 3.39258C59.084 2.82617 59.5879 2.54297 60.2402 2.54297C60.4512 2.54297 60.6113 2.57031 60.7207 2.625V3.63281Z" fill="black"/>
<path d="M32.8008 19.9004C32.8008 20.8652 32.5801 21.6426 32.1387 22.2324C31.6973 22.8223 31.0996 23.1172 30.3457 23.1172C29.5762 23.1172 28.9707 22.873 28.5293 22.3848V25.4375H27.4453V16.6602H28.4355L28.4883 17.3633C28.9297 16.8164 29.543 16.543 30.3281 16.543C31.0898 16.543 31.6914 16.8301 32.1328 17.4043C32.5781 17.9785 32.8008 18.7773 32.8008 19.8008V19.9004ZM31.7168 19.7773C31.7168 19.0625 31.5645 18.498 31.2598 18.084C30.9551 17.6699 30.5371 17.4629 30.0059 17.4629C29.3496 17.4629 28.8574 17.7539 28.5293 18.3359V21.3652C28.8535 21.9434 29.3496 22.2324 30.0176 22.2324C30.5371 22.2324 30.9492 22.0273 31.2539 21.6172C31.5625 21.2031 31.7168 20.5898 31.7168 19.7773Z" fill="black"/>
<path d="M37.248 17.6328C37.084 17.6055 36.9062 17.5918 36.7148 17.5918C36.0039 17.5918 35.5215 17.8945 35.2676 18.5V23H34.1836V16.6602H35.2383L35.2559 17.3926C35.6113 16.8262 36.1152 16.543 36.7676 16.543C36.9785 16.543 37.1387 16.5703 37.248 16.625V17.6328Z" fill="black"/>
<path d="M37.8457 19.7715C37.8457 19.1504 37.9668 18.5918 38.209 18.0957C38.4551 17.5996 38.7949 17.2168 39.2285 16.9473C39.666 16.6777 40.1641 16.543 40.7227 16.543C41.5859 16.543 42.2832 16.8418 42.8145 17.4395C43.3496 18.0371 43.6172 18.832 43.6172 19.8242V19.9004C43.6172 20.5176 43.498 21.0723 43.2598 21.5645C43.0254 22.0527 42.6875 22.4336 42.2461 22.707C41.8086 22.9805 41.3047 23.1172 40.7344 23.1172C39.875 23.1172 39.1777 22.8184 38.6426 22.2207C38.1113 21.623 37.8457 20.832 37.8457 19.8477V19.7715ZM38.9355 19.9004C38.9355 20.6035 39.0977 21.168 39.4219 21.5938C39.75 22.0195 40.1875 22.2324 40.7344 22.2324C41.2852 22.2324 41.7227 22.0176 42.0469 21.5879C42.3711 21.1543 42.5332 20.5488 42.5332 19.7715C42.5332 19.0762 42.3672 18.5137 42.0352 18.084C41.707 17.6504 41.2695 17.4336 40.7227 17.4336C40.1875 17.4336 39.7559 17.6465 39.4277 18.0723C39.0996 18.498 38.9355 19.1074 38.9355 19.9004Z" fill="black"/>
<path d="M50.3438 19.9004C50.3438 20.8691 50.1211 21.6484 49.6758 22.2383C49.2305 22.8242 48.6328 23.1172 47.8828 23.1172C47.082 23.1172 46.4629 22.834 46.0254 22.2676L45.9727 23H44.9766V14H46.0605V17.3574C46.498 16.8145 47.1016 16.543 47.8711 16.543C48.6406 16.543 49.2441 16.834 49.6816 17.416C50.123 17.998 50.3438 18.7949 50.3438 19.8066V19.9004ZM49.2598 19.7773C49.2598 19.0391 49.1172 18.4688 48.832 18.0664C48.5469 17.6641 48.1367 17.4629 47.6016 17.4629C46.8867 17.4629 46.373 17.7949 46.0605 18.459V21.2012C46.3926 21.8652 46.9102 22.1973 47.6133 22.1973C48.1328 22.1973 48.5371 21.9961 48.8262 21.5938C49.1152 21.1914 49.2598 20.5859 49.2598 19.7773Z" fill="black"/>
<path d="M52.8926 23H51.8086V14H52.8926V23Z" fill="black"/>
<path d="M57.2637 23.1172C56.4043 23.1172 55.7051 22.8359 55.166 22.2734C54.627 21.707 54.3574 20.9512 54.3574 20.0059V19.8066C54.3574 19.1777 54.4766 18.6172 54.7148 18.125C54.957 17.6289 55.293 17.2422 55.7227 16.9648C56.1562 16.6836 56.625 16.543 57.1289 16.543C57.9531 16.543 58.5938 16.8145 59.0508 17.3574C59.5078 17.9004 59.7363 18.6777 59.7363 19.6895V20.1406H55.4414C55.457 20.7656 55.6387 21.2715 55.9863 21.6582C56.3379 22.041 56.7832 22.2324 57.3223 22.2324C57.7051 22.2324 58.0293 22.1543 58.2949 21.998C58.5605 21.8418 58.793 21.6348 58.9922 21.377L59.6543 21.8926C59.123 22.709 58.3262 23.1172 57.2637 23.1172ZM57.1289 17.4336C56.6914 17.4336 56.3242 17.5938 56.0273 17.9141C55.7305 18.2305 55.5469 18.6758 55.4766 19.25H58.6523V19.168C58.6211 18.6172 58.4727 18.1914 58.207 17.8906C57.9414 17.5859 57.582 17.4336 57.1289 17.4336Z" fill="black"/>
<path d="M62.0156 16.6602L62.0449 17.3633C62.5098 16.8164 63.1367 16.543 63.9258 16.543C64.8125 16.543 65.416 16.8828 65.7363 17.5625C65.9473 17.2578 66.2207 17.0117 66.5566 16.8242C66.8965 16.6367 67.2969 16.543 67.7578 16.543C69.1484 16.543 69.8555 17.2793 69.8789 18.752V23H68.7949V18.8164C68.7949 18.3633 68.6914 18.0254 68.4844 17.8027C68.2773 17.5762 67.9297 17.4629 67.4414 17.4629C67.0391 17.4629 66.7051 17.584 66.4395 17.8262C66.1738 18.0645 66.0195 18.3867 65.9766 18.793V23H64.8867V18.8457C64.8867 17.9238 64.4355 17.4629 63.5332 17.4629C62.8223 17.4629 62.3359 17.7656 62.0742 18.3711V23H60.9902V16.6602H62.0156Z" fill="black"/>
<path d="M75.4336 23C75.3711 22.875 75.3203 22.6523 75.2812 22.332C74.7773 22.8555 74.1758 23.1172 73.4766 23.1172C72.8516 23.1172 72.3379 22.9414 71.9355 22.5898C71.5371 22.2344 71.3379 21.7852 71.3379 21.2422C71.3379 20.582 71.5879 20.0703 72.0879 19.707C72.5918 19.3398 73.2988 19.1562 74.209 19.1562H75.2637V18.6582C75.2637 18.2793 75.1504 17.9785 74.9238 17.7559C74.6973 17.5293 74.3633 17.416 73.9219 17.416C73.5352 17.416 73.2109 17.5137 72.9492 17.709C72.6875 17.9043 72.5566 18.1406 72.5566 18.418H71.4668C71.4668 18.1016 71.5781 17.7969 71.8008 17.5039C72.0273 17.207 72.332 16.9727 72.7148 16.8008C73.1016 16.6289 73.5254 16.543 73.9863 16.543C74.7168 16.543 75.2891 16.7266 75.7031 17.0938C76.1172 17.457 76.332 17.959 76.3477 18.5996V21.5176C76.3477 22.0996 76.4219 22.5625 76.5703 22.9062V23H75.4336ZM73.6348 22.1738C73.9746 22.1738 74.2969 22.0859 74.6016 21.9102C74.9062 21.7344 75.127 21.5059 75.2637 21.2246V19.9238H74.4141C73.0859 19.9238 72.4219 20.3125 72.4219 21.0898C72.4219 21.4297 72.5352 21.6953 72.7617 21.8867C72.9883 22.0781 73.2793 22.1738 73.6348 22.1738Z" fill="black"/>
</svg>
