<svg width="23" height="17" viewBox="0 0 23 17" fill="none" xmlns="http://www.w3.org/2000/svg">
<path d="M18.8789 7.23047C19.0195 6.84375 19.125 6.45703 19.125 6C19.125 4.13672 17.6133 2.625 15.75 2.625C15.0469 2.625 14.3789 2.83594 13.8516 3.22266C12.9023 1.53516 11.0742 0.375 9 0.375C5.87109 0.375 3.375 2.90625 3.375 6C3.375 6.10547 3.375 6.21094 3.375 6.31641C1.40625 6.98438 0 8.88281 0 11.0625C0 13.875 2.25 16.125 5.0625 16.125H18C20.4609 16.125 22.5 14.1211 22.5 11.625C22.5 9.48047 20.9531 7.65234 18.8789 7.23047ZM13.8164 9.375H11.5312V13.3125C11.5312 13.6289 11.25 13.875 10.9688 13.875H9.28125C8.96484 13.875 8.71875 13.6289 8.71875 13.3125V9.375H6.39844C5.90625 9.375 5.66016 8.77734 6.01172 8.42578L9.70312 4.73438C9.91406 4.52344 10.3008 4.52344 10.5117 4.73438L14.2031 8.42578C14.5547 8.77734 14.3086 9.375 13.8164 9.375Z" fill="black"/>
</svg>
