<svg width="21" height="19" viewBox="0 0 21 19" fill="none" xmlns="http://www.w3.org/2000/svg">
<path d="M14.5495 3.20312C14.4089 3.0625 14.1979 3.0625 14.0573 3.20312L6.39323 10.8672L6.04166 14.1367C5.97135 14.5586 6.35807 14.9453 6.77995 14.875L10.0495 14.5234L17.7135 6.85938C17.8542 6.71875 17.8542 6.50781 17.7135 6.36719L14.5495 3.20312ZM20.2448 2.39453L18.5221 0.671875C17.9948 0.144531 17.1159 0.144531 16.5885 0.671875L15.3581 1.90234C15.2174 2.04297 15.2174 2.25391 15.3581 2.39453L18.5221 5.55859C18.6628 5.69922 18.8737 5.69922 19.0143 5.55859L20.2448 4.32812C20.7721 3.80078 20.7721 2.92188 20.2448 2.39453ZM13.9167 12.4492V16H2.66666V4.75H10.7174C10.8581 4.75 10.9635 4.71484 11.0339 4.64453L12.4401 3.23828C12.6862 2.95703 12.5104 2.5 12.1237 2.5H2.10416C1.15495 2.5 0.416664 3.27344 0.416664 4.1875V16.5625C0.416664 17.5117 1.15495 18.25 2.10416 18.25H14.4792C15.3932 18.25 16.1667 17.5117 16.1667 16.5625V11.043C16.1667 10.6562 15.7096 10.4805 15.4284 10.7266L14.0221 12.1328C13.9518 12.2031 13.9167 12.3086 13.9167 12.4492Z" fill="black"/>
</svg>
