<svg width="32" height="30" viewBox="0 0 32 30" fill="none" xmlns="http://www.w3.org/2000/svg">
<path d="M16.1469 0C7.71203 0 0.87793 6.71371 0.87793 15C0.87793 23.2863 7.71203 30 16.1469 30C24.5818 30 31.4159 23.2863 31.4159 15C31.4159 6.71371 24.5818 0 16.1469 0ZM16.1469 5.80645C19.1022 5.80645 21.5649 8.22581 21.5649 11.129C21.5649 14.0927 19.1022 16.4516 16.1469 16.4516C13.13 16.4516 10.7289 14.0927 10.7289 11.129C10.7289 8.22581 13.13 5.80645 16.1469 5.80645ZM16.1469 26.6129C12.5144 26.6129 9.25124 25.0403 7.09634 22.5C8.26614 20.3831 10.5442 18.871 13.1916 18.871C13.3148 18.871 13.4379 18.9315 13.6226 18.9919C14.423 19.2339 15.2234 19.3548 16.1469 19.3548C17.0089 19.3548 17.8708 19.2339 18.6096 18.9919C18.7943 18.9315 18.9175 18.871 19.1022 18.871C21.6881 18.871 23.9661 20.3831 25.1359 22.5C22.981 25.0403 19.7179 26.6129 16.1469 26.6129Z" fill="#4285F4"/>
</svg>
