<svg width="73" height="58" viewBox="0 0 73 58" fill="none" xmlns="http://www.w3.org/2000/svg">
<path d="M1 16.625C1 18.5938 2.40625 20 4.375 20H55V26.75C55 29.8438 58.5156 31.25 60.625 29.1406L71.875 17.8906C73.2812 16.625 73.2812 14.5156 71.875 13.25L60.625 2C58.5156 -0.25 55 1.29688 55 4.25V11H4.375C2.40625 11 1 12.5469 1 14.375V16.625ZM69.625 38H19V31.25C19 28.2969 15.3438 26.75 13.2344 29L1.98438 40.25C0.578125 41.5156 0.578125 43.625 1.98438 44.8906L13.2344 56.1406C15.3438 58.25 19 56.8438 19 53.75V47H69.625C71.4531 47 73 45.5938 73 43.625V41.375C73 39.5469 71.4531 38 69.625 38Z" fill="#FCBC05"/>
</svg>
