<svg width="81" height="64" viewBox="0 0 81 64" fill="none" xmlns="http://www.w3.org/2000/svg">
<path d="M74.25 0.5H6.75C2.95312 0.5 0 3.59375 0 7.25V9.5H81V7.25C81 3.59375 77.9062 0.5 74.25 0.5ZM0 56.75C0 60.5469 2.95312 63.5 6.75 63.5H74.25C77.9062 63.5 81 60.5469 81 56.75V14H0V56.75ZM49.5 24.125C49.5 23.5625 49.9219 23 50.625 23H70.875C71.4375 23 72 23.5625 72 24.125V26.375C72 27.0781 71.4375 27.5 70.875 27.5H50.625C49.9219 27.5 49.5 27.0781 49.5 26.375V24.125ZM49.5 33.125C49.5 32.5625 49.9219 32 50.625 32H70.875C71.4375 32 72 32.5625 72 33.125V35.375C72 36.0781 71.4375 36.5 70.875 36.5H50.625C49.9219 36.5 49.5 36.0781 49.5 35.375V33.125ZM49.5 42.125C49.5 41.5625 49.9219 41 50.625 41H70.875C71.4375 41 72 41.5625 72 42.125V44.375C72 45.0781 71.4375 45.5 70.875 45.5H50.625C49.9219 45.5 49.5 45.0781 49.5 44.375V42.125ZM24.75 23C29.6719 23 33.75 27.0781 33.75 32C33.75 37.0625 29.6719 41 24.75 41C19.6875 41 15.75 37.0625 15.75 32C15.75 27.0781 19.6875 23 24.75 23ZM9.42188 51.8281C10.5469 48.1719 13.9219 45.5 18 45.5H19.125C20.8125 46.3438 22.6406 46.625 24.75 46.625C26.7188 46.625 28.5469 46.3438 30.2344 45.5H31.5C35.4375 45.5 38.8125 48.1719 39.9375 51.8281C40.5 53.2344 39.2344 54.5 37.8281 54.5H11.5312C10.125 54.5 8.85938 53.0938 9.42188 51.8281Z" fill="#EB4335"/>
</svg>
