<svg width="65" height="64" viewBox="0 0 73 72" fill="none" xmlns="http://www.w3.org/2000/svg">
<path d="M72.8594 53.2969L69.0625 30.7969C68.6406 28.6875 66.8125 27.1406 64.5625 27.1406H30.25V18.1406H43.75C44.875 18.1406 46 17.0156 46 15.8906V2.25C46 1.125 44.875 0 43.75 0H7.75C6.48438 0 5.5 1.125 5.5 2.25V15.75C5.5 17.0156 6.48438 18 7.75 18H21.25V27H9.29688C7.04688 27 5.21875 28.6875 4.79688 30.7969L1 53.2969C1 53.8594 0.859375 54.2812 0.859375 54.8438V67.5C0.859375 70.0312 2.96875 72 5.35938 72H68.3594C70.8906 72 72.8594 70.0312 72.8594 67.5V54.8438C73 54.2812 72.8594 53.8594 72.8594 53.2969ZM40.375 34.875C40.375 33.75 41.3594 32.625 42.625 32.625H44.875C46 32.625 47.125 33.75 47.125 34.875V37.125C47.125 38.3906 46 39.375 44.875 39.375H42.625C41.3594 39.375 40.375 38.3906 40.375 37.125V34.875ZM35.875 43.875H38.125C39.25 43.875 40.375 45 40.375 46.125V48.375C40.375 49.6406 39.25 50.625 38.125 50.625H35.875C34.6094 50.625 33.625 49.6406 33.625 48.375V46.125C33.625 45 34.6094 43.875 35.875 43.875ZM31.375 32.625C32.5 32.625 33.625 33.75 33.625 34.875V37.125C33.625 38.3906 32.5 39.375 31.375 39.375H29.125C27.8594 39.375 26.875 38.3906 26.875 37.125V34.875C26.875 33.75 27.8594 32.625 29.125 32.625H31.375ZM12.25 11.25V6.75H39.25V11.25H12.25ZM17.875 39.375H15.625C14.3594 39.375 13.375 38.3906 13.375 37.125V34.875C13.375 33.75 14.3594 32.625 15.625 32.625H17.875C19 32.625 20.125 33.75 20.125 34.875V37.125C20.125 38.3906 19 39.375 17.875 39.375ZM20.125 48.375V46.125C20.125 45 21.1094 43.875 22.375 43.875H24.625C25.75 43.875 26.875 45 26.875 46.125V48.375C26.875 49.6406 25.75 50.625 24.625 50.625H22.375C21.1094 50.625 20.125 49.6406 20.125 48.375ZM50.5 64.125C50.5 64.8281 49.9375 65.25 49.375 65.25H24.625C23.9219 65.25 23.5 64.8281 23.5 64.125V61.875C23.5 61.3125 23.9219 60.75 24.625 60.75H49.375C49.9375 60.75 50.5 61.3125 50.5 61.875V64.125ZM53.875 48.375C53.875 49.6406 52.75 50.625 51.625 50.625H49.375C48.1094 50.625 47.125 49.6406 47.125 48.375V46.125C47.125 45 48.1094 43.875 49.375 43.875H51.625C52.75 43.875 53.875 45 53.875 46.125V48.375ZM60.625 37.125C60.625 38.3906 59.5 39.375 58.375 39.375H56.125C54.8594 39.375 53.875 38.3906 53.875 37.125V34.875C53.875 33.75 54.8594 32.625 56.125 32.625H58.375C59.5 32.625 60.625 33.75 60.625 34.875V37.125Z" fill="#34A853"/>
</svg>
