<svg width="17" height="19" viewBox="0 0 17 19" fill="none" xmlns="http://www.w3.org/2000/svg">
<path d="M16.1606 1.375H11.9419L11.5903 0.742188C11.4497 0.460938 11.1685 0.25 10.8521 0.25H6.80908C6.49268 0.25 6.21143 0.460938 6.0708 0.742188L5.75439 1.375H1.53564C1.21924 1.375 0.973145 1.65625 0.973145 1.9375V3.0625C0.973145 3.37891 1.21924 3.625 1.53564 3.625H16.1606C16.4419 3.625 16.7231 3.37891 16.7231 3.0625V1.9375C16.7231 1.65625 16.4419 1.375 16.1606 1.375ZM2.83643 16.668C2.87158 17.582 3.60986 18.25 4.52393 18.25H13.1372C14.0513 18.25 14.7896 17.582 14.8247 16.668L15.5981 4.75H2.09814L2.83643 16.668Z" fill="black"/>
</svg>
