<svg width="47" height="48" viewBox="0 0 47 48" fill="none" xmlns="http://www.w3.org/2000/svg">
<path d="M23.25 0.75C10.4062 0.75 0 11.1562 0 24C0 36.8438 10.4062 47.25 23.25 47.25C36.0938 47.25 46.5 36.8438 46.5 24C46.5 11.1562 36.0938 0.75 23.25 0.75ZM23.25 9.75C27.75 9.75 31.5 13.5 31.5 18C31.5 22.5938 27.75 26.25 23.25 26.25C18.6562 26.25 15 22.5938 15 18C15 13.5 18.6562 9.75 23.25 9.75ZM23.25 42C17.7188 42 12.75 39.5625 9.46875 35.625C11.25 32.3438 14.7188 30 18.75 30C18.9375 30 19.125 30.0938 19.4062 30.1875C20.625 30.5625 21.8438 30.75 23.25 30.75C24.5625 30.75 25.875 30.5625 27 30.1875C27.2812 30.0938 27.4688 30 27.75 30C31.6875 30 35.1562 32.3438 36.9375 35.625C33.6562 39.5625 28.6875 42 23.25 42Z" fill="#4285F4"/>
</svg>
