<svg width="174" height="30" viewBox="0 0 174 30" fill="none" xmlns="http://www.w3.org/2000/svg">
<rect x="0.5" y="0.5" width="172.891" height="29" rx="9.5" fill="#F6F6F6" stroke="#34A853"/>
<path d="M42.7009 19.2139L45.9529 9.20312H48.3962L43.7908 22H41.6375L37.0496 9.20312H39.4841L42.7009 19.2139ZM53.4412 22.1758C52.0876 22.1758 50.989 21.751 50.1453 20.9014C49.3074 20.0459 48.8884 18.9092 48.8884 17.4912V17.2275C48.8884 16.2783 49.0701 15.4316 49.4333 14.6875C49.8025 13.9375 50.3181 13.3545 50.9802 12.9385C51.6423 12.5225 52.3806 12.3145 53.1951 12.3145C54.49 12.3145 55.489 12.7275 56.1921 13.5537C56.9011 14.3799 57.2556 15.5488 57.2556 17.0605V17.9219H51.0417C51.1062 18.707 51.3669 19.3281 51.824 19.7852C52.2869 20.2422 52.8669 20.4707 53.5642 20.4707C54.5427 20.4707 55.3396 20.0752 55.9548 19.2842L57.1062 20.3828C56.7253 20.9512 56.2156 21.3936 55.5769 21.71C54.9441 22.0205 54.2322 22.1758 53.4412 22.1758ZM53.1863 14.0283C52.6003 14.0283 52.1257 14.2334 51.7625 14.6436C51.405 15.0537 51.1765 15.625 51.0769 16.3574H55.1462V16.1992C55.0994 15.4844 54.9089 14.9453 54.575 14.582C54.241 14.2129 53.7781 14.0283 53.1863 14.0283ZM63.9001 14.4414C63.6189 14.3945 63.3289 14.3711 63.03 14.3711C62.0515 14.3711 61.3923 14.7461 61.0525 15.4961V22H58.9167V12.4902H60.9558L61.0085 13.5537C61.5242 12.7275 62.239 12.3145 63.1531 12.3145C63.4578 12.3145 63.7097 12.3555 63.9089 12.4375L63.9001 14.4414ZM72.821 9.20312L76.5125 19.0117L80.1951 9.20312H83.0691V22H80.8542V17.7812L81.074 12.1387L77.2947 22H75.7039L71.9333 12.1475L72.1531 17.7812V22H69.9382V9.20312H72.821ZM89.6873 22.1758C88.3337 22.1758 87.2351 21.751 86.3914 20.9014C85.5535 20.0459 85.1345 18.9092 85.1345 17.4912V17.2275C85.1345 16.2783 85.3162 15.4316 85.6794 14.6875C86.0486 13.9375 86.5642 13.3545 87.2263 12.9385C87.8884 12.5225 88.6267 12.3145 89.4412 12.3145C90.7361 12.3145 91.7351 12.7275 92.4382 13.5537C93.1472 14.3799 93.5017 15.5488 93.5017 17.0605V17.9219H87.2878C87.3523 18.707 87.613 19.3281 88.0701 19.7852C88.533 20.2422 89.113 20.4707 89.8103 20.4707C90.7888 20.4707 91.5857 20.0752 92.2009 19.2842L93.3523 20.3828C92.9714 20.9512 92.4617 21.3936 91.823 21.71C91.1902 22.0205 90.4783 22.1758 89.6873 22.1758ZM89.4324 14.0283C88.8464 14.0283 88.3718 14.2334 88.0085 14.6436C87.6511 15.0537 87.4226 15.625 87.323 16.3574H91.3923V16.1992C91.3455 15.4844 91.155 14.9453 90.821 14.582C90.4871 14.2129 90.0242 14.0283 89.4324 14.0283ZM97.1492 12.4902L97.2107 13.5889C97.9138 12.7393 98.8367 12.3145 99.9792 12.3145C101.96 12.3145 102.968 13.4482 103.003 15.7158V22H100.867V15.8389C100.867 15.2354 100.735 14.79 100.471 14.5029C100.214 14.21 99.7888 14.0635 99.197 14.0635C98.3357 14.0635 97.6941 14.4531 97.2722 15.2324V22H95.1365V12.4902H97.1492ZM110.517 19.416C110.517 19.0352 110.359 18.7451 110.043 18.5459C109.732 18.3467 109.214 18.1709 108.487 18.0186C107.76 17.8662 107.154 17.6729 106.668 17.4385C105.601 16.9229 105.068 16.1758 105.068 15.1973C105.068 14.377 105.414 13.6914 106.105 13.1406C106.797 12.5898 107.676 12.3145 108.742 12.3145C109.879 12.3145 110.796 12.5957 111.493 13.1582C112.196 13.7207 112.548 14.4502 112.548 15.3467H110.412C110.412 14.9365 110.26 14.5967 109.955 14.3271C109.65 14.0518 109.246 13.9141 108.742 13.9141C108.273 13.9141 107.889 14.0225 107.591 14.2393C107.298 14.4561 107.151 14.7461 107.151 15.1094C107.151 15.4375 107.289 15.6924 107.564 15.874C107.84 16.0557 108.396 16.2402 109.234 16.4277C110.072 16.6094 110.728 16.8291 111.203 17.0869C111.683 17.3389 112.038 17.6436 112.266 18.001C112.501 18.3584 112.618 18.792 112.618 19.3018C112.618 20.1572 112.263 20.8516 111.554 21.3848C110.845 21.9121 109.917 22.1758 108.768 22.1758C107.989 22.1758 107.295 22.0352 106.685 21.7539C106.076 21.4727 105.601 21.0859 105.261 20.5938C104.922 20.1016 104.752 19.5713 104.752 19.0029H106.826C106.855 19.5068 107.046 19.8965 107.397 20.1719C107.749 20.4414 108.215 20.5762 108.795 20.5762C109.357 20.5762 109.785 20.4707 110.078 20.2598C110.371 20.043 110.517 19.7617 110.517 19.416ZM120.168 22C120.074 21.8184 119.992 21.5225 119.922 21.1123C119.242 21.8213 118.41 22.1758 117.426 22.1758C116.47 22.1758 115.691 21.9033 115.088 21.3584C114.484 20.8135 114.182 20.1396 114.182 19.3369C114.182 18.3232 114.557 17.5469 115.307 17.0078C116.063 16.4629 117.141 16.1904 118.542 16.1904H119.851V15.5664C119.851 15.0742 119.714 14.6816 119.438 14.3887C119.163 14.0898 118.744 13.9404 118.181 13.9404C117.695 13.9404 117.297 14.0635 116.986 14.3096C116.676 14.5498 116.52 14.8574 116.52 15.2324H114.385C114.385 14.7109 114.557 14.2246 114.903 13.7734C115.249 13.3164 115.718 12.959 116.309 12.7012C116.907 12.4434 117.572 12.3145 118.304 12.3145C119.418 12.3145 120.305 12.5957 120.968 13.1582C121.63 13.7148 121.969 14.5 121.987 15.5137V19.8027C121.987 20.6582 122.107 21.3408 122.347 21.8506V22H120.168ZM117.821 20.4619C118.243 20.4619 118.638 20.3594 119.008 20.1543C119.383 19.9492 119.664 19.6738 119.851 19.3281V17.5352H118.7C117.909 17.5352 117.314 17.6729 116.916 17.9482C116.517 18.2236 116.318 18.6133 116.318 19.1172C116.318 19.5273 116.453 19.8555 116.722 20.1016C116.998 20.3418 117.364 20.4619 117.821 20.4619ZM123.85 17.1748C123.85 15.6982 124.196 14.5205 124.887 13.6416C125.585 12.7568 126.508 12.3145 127.656 12.3145C128.74 12.3145 129.593 12.6924 130.214 13.4482L130.31 12.4902H132.235V21.71C132.235 22.958 131.845 23.9424 131.066 24.6631C130.293 25.3838 129.247 25.7441 127.928 25.7441C127.231 25.7441 126.549 25.5977 125.881 25.3047C125.219 25.0176 124.715 24.6396 124.369 24.1709L125.38 22.8877C126.036 23.667 126.844 24.0566 127.805 24.0566C128.514 24.0566 129.074 23.8633 129.484 23.4766C129.894 23.0957 130.099 22.5332 130.099 21.7891V21.1475C129.484 21.833 128.664 22.1758 127.638 22.1758C126.525 22.1758 125.614 21.7334 124.905 20.8486C124.202 19.9639 123.85 18.7393 123.85 17.1748ZM125.977 17.3594C125.977 18.3145 126.171 19.0674 126.557 19.6182C126.95 20.1631 127.492 20.4355 128.183 20.4355C129.045 20.4355 129.683 20.0664 130.099 19.3281V15.1445C129.695 14.4238 129.062 14.0635 128.201 14.0635C127.498 14.0635 126.95 14.3418 126.557 14.8984C126.171 15.4551 125.977 16.2754 125.977 17.3594ZM138.625 22.1758C137.271 22.1758 136.173 21.751 135.329 20.9014C134.491 20.0459 134.072 18.9092 134.072 17.4912V17.2275C134.072 16.2783 134.254 15.4316 134.617 14.6875C134.986 13.9375 135.502 13.3545 136.164 12.9385C136.826 12.5225 137.564 12.3145 138.379 12.3145C139.674 12.3145 140.673 12.7275 141.376 13.5537C142.085 14.3799 142.439 15.5488 142.439 17.0605V17.9219H136.225C136.29 18.707 136.551 19.3281 137.008 19.7852C137.47 20.2422 138.051 20.4707 138.748 20.4707C139.726 20.4707 140.523 20.0752 141.138 19.2842L142.29 20.3828C141.909 20.9512 141.399 21.3936 140.76 21.71C140.128 22.0205 139.416 22.1758 138.625 22.1758ZM138.37 14.0283C137.784 14.0283 137.309 14.2334 136.946 14.6436C136.589 15.0537 136.36 15.625 136.26 16.3574H140.33V16.1992C140.283 15.4844 140.093 14.9453 139.759 14.582C139.425 14.2129 138.962 14.0283 138.37 14.0283ZM146.087 12.4902L146.148 13.5889C146.851 12.7393 147.774 12.3145 148.917 12.3145C150.897 12.3145 151.905 13.4482 151.94 15.7158V22H149.804V15.8389C149.804 15.2354 149.673 14.79 149.409 14.5029C149.151 14.21 148.726 14.0635 148.135 14.0635C147.273 14.0635 146.632 14.4531 146.21 15.2324V22H144.074V12.4902H146.087ZM159.455 19.416C159.455 19.0352 159.297 18.7451 158.98 18.5459C158.67 18.3467 158.151 18.1709 157.425 18.0186C156.698 17.8662 156.092 17.6729 155.605 17.4385C154.539 16.9229 154.006 16.1758 154.006 15.1973C154.006 14.377 154.351 13.6914 155.043 13.1406C155.734 12.5898 156.613 12.3145 157.679 12.3145C158.816 12.3145 159.733 12.5957 160.43 13.1582C161.134 13.7207 161.485 14.4502 161.485 15.3467H159.349C159.349 14.9365 159.197 14.5967 158.892 14.3271C158.588 14.0518 158.183 13.9141 157.679 13.9141C157.211 13.9141 156.827 14.0225 156.528 14.2393C156.235 14.4561 156.089 14.7461 156.089 15.1094C156.089 15.4375 156.226 15.6924 156.502 15.874C156.777 16.0557 157.334 16.2402 158.172 16.4277C159.01 16.6094 159.666 16.8291 160.14 17.0869C160.621 17.3389 160.975 17.6436 161.204 18.001C161.438 18.3584 161.555 18.792 161.555 19.3018C161.555 20.1572 161.201 20.8516 160.492 21.3848C159.783 21.9121 158.854 22.1758 157.706 22.1758C156.927 22.1758 156.232 22.0352 155.623 21.7539C155.013 21.4727 154.539 21.0859 154.199 20.5938C153.859 20.1016 153.689 19.5713 153.689 19.0029H155.763C155.793 19.5068 155.983 19.8965 156.335 20.1719C156.686 20.4414 157.152 20.5762 157.732 20.5762C158.295 20.5762 158.722 20.4707 159.015 20.2598C159.308 20.043 159.455 19.7617 159.455 19.416Z" fill="#34A853"/>
<path d="M19.8569 6.53125C15.0405 6.53125 11.1382 10.4336 11.1382 15.25C11.1382 20.0664 15.0405 23.9688 19.8569 23.9688C24.6734 23.9688 28.5757 20.0664 28.5757 15.25C28.5757 10.4336 24.6734 6.53125 19.8569 6.53125ZM24.9194 16.2344C24.9194 16.4805 24.7085 16.6562 24.4976 16.6562H21.2632V19.8906C21.2632 20.1367 21.0523 20.3125 20.8413 20.3125H18.8726C18.6265 20.3125 18.4507 20.1367 18.4507 19.8906V16.6562H15.2163C14.9702 16.6562 14.7944 16.4805 14.7944 16.2344V14.2656C14.7944 14.0547 14.9702 13.8438 15.2163 13.8438H18.4507V10.6094C18.4507 10.3984 18.6265 10.1875 18.8726 10.1875H20.8413C21.0523 10.1875 21.2632 10.3984 21.2632 10.6094V13.8438H24.4976C24.7085 13.8438 24.9194 14.0547 24.9194 14.2656V16.2344Z" fill="#34A853"/>
</svg>
