<svg width="65" height="64" viewBox="0 0 65 64" fill="none" xmlns="http://www.w3.org/2000/svg">
<path d="M64.875 47.375L61.5 27.375C61.125 25.5 59.5 24.125 57.5 24.125H27V16.125H39C40 16.125 41 15.125 41 14.125V2C41 1 40 0 39 0H7C5.875 0 5 1 5 2V14C5 15.125 5.875 16 7 16H19V24H8.375C6.375 24 4.75 25.5 4.375 27.375L1 47.375C1 47.875 0.875 48.25 0.875 48.75V60C0.875 62.25 2.75 64 4.875 64H60.875C63.125 64 64.875 62.25 64.875 60V48.75C65 48.25 64.875 47.875 64.875 47.375ZM36 31C36 30 36.875 29 38 29H40C41 29 42 30 42 31V33C42 34.125 41 35 40 35H38C36.875 35 36 34.125 36 33V31ZM32 39H34C35 39 36 40 36 41V43C36 44.125 35 45 34 45H32C30.875 45 30 44.125 30 43V41C30 40 30.875 39 32 39ZM28 29C29 29 30 30 30 31V33C30 34.125 29 35 28 35H26C24.875 35 24 34.125 24 33V31C24 30 24.875 29 26 29H28ZM11 10V6H35V10H11ZM16 35H14C12.875 35 12 34.125 12 33V31C12 30 12.875 29 14 29H16C17 29 18 30 18 31V33C18 34.125 17 35 16 35ZM18 43V41C18 40 18.875 39 20 39H22C23 39 24 40 24 41V43C24 44.125 23 45 22 45H20C18.875 45 18 44.125 18 43ZM45 57C45 57.625 44.5 58 44 58H22C21.375 58 21 57.625 21 57V55C21 54.5 21.375 54 22 54H44C44.5 54 45 54.5 45 55V57ZM48 43C48 44.125 47 45 46 45H44C42.875 45 42 44.125 42 43V41C42 40 42.875 39 44 39H46C47 39 48 40 48 41V43ZM54 33C54 34.125 53 35 52 35H50C48.875 35 48 34.125 48 33V31C48 30 48.875 29 50 29H52C53 29 54 30 54 31V33Z" fill="#34A853"/>
</svg>
