<svg width="147" height="30" viewBox="0 0 147 30" fill="none" xmlns="http://www.w3.org/2000/svg">
<rect x="0.557739" y="0.5" width="145.538" height="29" rx="9.5" fill="#F6F6F6" stroke="#4285F4"/>
<path d="M43.123 19.2139L46.375 9.20312H48.8184L44.2129 22H42.0596L37.4717 9.20312H39.9062L43.123 19.2139ZM53.8633 22.1758C52.5098 22.1758 51.4111 21.751 50.5674 20.9014C49.7295 20.0459 49.3105 18.9092 49.3105 17.4912V17.2275C49.3105 16.2783 49.4922 15.4316 49.8555 14.6875C50.2246 13.9375 50.7402 13.3545 51.4023 12.9385C52.0645 12.5225 52.8027 12.3145 53.6172 12.3145C54.9121 12.3145 55.9111 12.7275 56.6143 13.5537C57.3232 14.3799 57.6777 15.5488 57.6777 17.0605V17.9219H51.4639C51.5283 18.707 51.7891 19.3281 52.2461 19.7852C52.709 20.2422 53.2891 20.4707 53.9863 20.4707C54.9648 20.4707 55.7617 20.0752 56.377 19.2842L57.5283 20.3828C57.1475 20.9512 56.6377 21.3936 55.999 21.71C55.3662 22.0205 54.6543 22.1758 53.8633 22.1758ZM53.6084 14.0283C53.0225 14.0283 52.5479 14.2334 52.1846 14.6436C51.8271 15.0537 51.5986 15.625 51.499 16.3574H55.5684V16.1992C55.5215 15.4844 55.3311 14.9453 54.9971 14.582C54.6631 14.2129 54.2002 14.0283 53.6084 14.0283ZM64.3223 14.4414C64.041 14.3945 63.751 14.3711 63.4521 14.3711C62.4736 14.3711 61.8145 14.7461 61.4746 15.4961V22H59.3389V12.4902H61.3779L61.4307 13.5537C61.9463 12.7275 62.6611 12.3145 63.5752 12.3145C63.8799 12.3145 64.1318 12.3555 64.3311 12.4375L64.3223 14.4414ZM72.584 17.2451V22H70.3604V9.20312H75.2559C76.6855 9.20312 77.8193 9.5752 78.6572 10.3193C79.501 11.0635 79.9229 12.0479 79.9229 13.2725C79.9229 14.5264 79.5098 15.502 78.6836 16.1992C77.8633 16.8965 76.7119 17.2451 75.2295 17.2451H72.584ZM72.584 15.4609H75.2559C76.0469 15.4609 76.6504 15.2764 77.0664 14.9072C77.4824 14.5322 77.6904 13.9932 77.6904 13.29C77.6904 12.5986 77.4795 12.0479 77.0576 11.6377C76.6357 11.2217 76.0557 11.0078 75.3174 10.9961H72.584V15.4609ZM85.7324 22.1758C84.3789 22.1758 83.2803 21.751 82.4365 20.9014C81.5986 20.0459 81.1797 18.9092 81.1797 17.4912V17.2275C81.1797 16.2783 81.3613 15.4316 81.7246 14.6875C82.0938 13.9375 82.6094 13.3545 83.2715 12.9385C83.9336 12.5225 84.6719 12.3145 85.4863 12.3145C86.7812 12.3145 87.7803 12.7275 88.4834 13.5537C89.1924 14.3799 89.5469 15.5488 89.5469 17.0605V17.9219H83.333C83.3975 18.707 83.6582 19.3281 84.1152 19.7852C84.5781 20.2422 85.1582 20.4707 85.8555 20.4707C86.834 20.4707 87.6309 20.0752 88.2461 19.2842L89.3975 20.3828C89.0166 20.9512 88.5068 21.3936 87.8682 21.71C87.2354 22.0205 86.5234 22.1758 85.7324 22.1758ZM85.4775 14.0283C84.8916 14.0283 84.417 14.2334 84.0537 14.6436C83.6963 15.0537 83.4678 15.625 83.3682 16.3574H87.4375V16.1992C87.3906 15.4844 87.2002 14.9453 86.8662 14.582C86.5322 14.2129 86.0693 14.0283 85.4775 14.0283ZM90.8125 17.1748C90.8125 15.71 91.1523 14.5352 91.832 13.6504C92.5117 12.7598 93.4229 12.3145 94.5654 12.3145C95.5732 12.3145 96.3877 12.666 97.0088 13.3691V8.5H99.1445V22H97.2109L97.1055 21.0156C96.4668 21.7891 95.6143 22.1758 94.5479 22.1758C93.4346 22.1758 92.5322 21.7275 91.8408 20.8311C91.1553 19.9346 90.8125 18.7158 90.8125 17.1748ZM92.9482 17.3594C92.9482 18.3262 93.1328 19.082 93.502 19.627C93.877 20.166 94.4072 20.4355 95.0928 20.4355C95.9658 20.4355 96.6045 20.0459 97.0088 19.2666V15.2061C96.6162 14.4443 95.9834 14.0635 95.1104 14.0635C94.4189 14.0635 93.8857 14.3389 93.5107 14.8896C93.1357 15.4346 92.9482 16.2578 92.9482 17.3594ZM103.645 22H101.509V12.4902H103.645V22ZM101.377 10.0205C101.377 9.69238 101.479 9.41992 101.685 9.20312C101.896 8.98633 102.194 8.87793 102.581 8.87793C102.968 8.87793 103.267 8.98633 103.478 9.20312C103.688 9.41992 103.794 9.69238 103.794 10.0205C103.794 10.3428 103.688 10.6123 103.478 10.8291C103.267 11.04 102.968 11.1455 102.581 11.1455C102.194 11.1455 101.896 11.04 101.685 10.8291C101.479 10.6123 101.377 10.3428 101.377 10.0205ZM105.578 17.1748C105.578 15.71 105.918 14.5352 106.598 13.6504C107.277 12.7598 108.188 12.3145 109.331 12.3145C110.339 12.3145 111.153 12.666 111.774 13.3691V8.5H113.91V22H111.977L111.871 21.0156C111.232 21.7891 110.38 22.1758 109.313 22.1758C108.2 22.1758 107.298 21.7275 106.606 20.8311C105.921 19.9346 105.578 18.7158 105.578 17.1748ZM107.714 17.3594C107.714 18.3262 107.898 19.082 108.268 19.627C108.643 20.166 109.173 20.4355 109.858 20.4355C110.731 20.4355 111.37 20.0459 111.774 19.2666V15.2061C111.382 14.4443 110.749 14.0635 109.876 14.0635C109.185 14.0635 108.651 14.3389 108.276 14.8896C107.901 15.4346 107.714 16.2578 107.714 17.3594ZM115.738 17.1572C115.738 16.2256 115.923 15.3877 116.292 14.6436C116.661 13.8936 117.18 13.3193 117.848 12.9209C118.516 12.5166 119.283 12.3145 120.15 12.3145C121.434 12.3145 122.474 12.7275 123.271 13.5537C124.073 14.3799 124.507 15.4756 124.571 16.8408L124.58 17.3418C124.58 18.2793 124.398 19.1172 124.035 19.8555C123.678 20.5938 123.162 21.165 122.488 21.5693C121.82 21.9736 121.047 22.1758 120.168 22.1758C118.826 22.1758 117.751 21.7305 116.942 20.8398C116.14 19.9434 115.738 18.751 115.738 17.2627V17.1572ZM117.874 17.3418C117.874 18.3203 118.076 19.0879 118.48 19.6445C118.885 20.1953 119.447 20.4707 120.168 20.4707C120.889 20.4707 121.448 20.1895 121.847 19.627C122.251 19.0645 122.453 18.2412 122.453 17.1572C122.453 16.1963 122.245 15.4346 121.829 14.8721C121.419 14.3096 120.859 14.0283 120.15 14.0283C119.453 14.0283 118.899 14.3066 118.489 14.8633C118.079 15.4141 117.874 16.2402 117.874 17.3418Z" fill="#4285F4"/>
<path d="M19.9147 5.53125C15.0983 5.53125 11.1959 9.43359 11.1959 14.25C11.1959 19.0664 15.0983 22.9688 19.9147 22.9688C24.7311 22.9688 28.6334 19.0664 28.6334 14.25C28.6334 9.43359 24.7311 5.53125 19.9147 5.53125ZM24.9772 15.2344C24.9772 15.4805 24.7662 15.6562 24.5553 15.6562H21.3209V18.8906C21.3209 19.1367 21.11 19.3125 20.8991 19.3125H18.9303C18.6842 19.3125 18.5084 19.1367 18.5084 18.8906V15.6562H15.2741C15.028 15.6562 14.8522 15.4805 14.8522 15.2344V13.2656C14.8522 13.0547 15.028 12.8438 15.2741 12.8438H18.5084V9.60938C18.5084 9.39844 18.6842 9.1875 18.9303 9.1875H20.8991C21.11 9.1875 21.3209 9.39844 21.3209 9.60938V12.8438H24.5553C24.7662 12.8438 24.9772 13.0547 24.9772 13.2656V15.2344Z" fill="#4285F4"/>
</svg>

