<svg width="30" height="30" viewBox="0 0 30 30" fill="none" xmlns="http://www.w3.org/2000/svg">
<rect width="30" height="30" fill="#C4C4C4"/>
<path d="M21.5 9.53906C21.5 9.32812 21.3945 9.11719 21.2188 8.94141L17.8086 5.53125C17.6328 5.35547 17.4219 5.25 17.2109 5.25H17V9.75H21.5V9.53906ZM16.7188 10.875C16.2266 10.875 15.875 10.5234 15.875 10.0312V5.25H8.84375C8.35156 5.25 8 5.63672 8 6.09375V22.4062C8 22.8984 8.35156 23.25 8.84375 23.25H20.6562C21.1133 23.25 21.5 22.8984 21.5 22.4062V10.875H16.7188ZM11.9375 11.4375C12.8867 11.4375 13.625 12.2109 13.625 13.125C13.625 14.0742 12.8867 14.8125 11.9375 14.8125C11.0234 14.8125 10.25 14.0742 10.25 13.125C10.25 12.2109 11.0234 11.4375 11.9375 11.4375ZM19.25 19.875H10.25L10.2852 18.1875L11.6562 16.7812C11.832 16.6406 12.0781 16.6406 12.2539 16.8164L13.625 18.1875L17.2812 14.5664C17.4219 14.3906 17.7031 14.3906 17.8789 14.5664L19.25 15.9375V19.875Z" fill="black"/>
</svg>
