<svg width="64" height="72" viewBox="0 0 64 72" fill="none" xmlns="http://www.w3.org/2000/svg">
<path d="M63.0107 50.625V3.375C63.0107 1.54688 61.4638 0 59.6357 0H13.5107C6.05756 0 0.0106888 6.04688 0.0106888 13.5V58.5C0.0106888 65.9531 6.05756 72 13.5107 72H59.6357C61.4638 72 63.0107 70.5938 63.0107 68.625V66.375C63.0107 65.3906 62.4482 64.4062 61.7451 63.8438C61.0419 61.5938 61.0419 55.4062 61.7451 53.2969C62.4482 52.7344 63.0107 51.75 63.0107 50.625ZM18.0107 18.8438C18.0107 18.4219 18.2919 18 18.8544 18H48.6669C49.0888 18 49.5107 18.4219 49.5107 18.8438V21.6562C49.5107 22.2188 49.0888 22.5 48.6669 22.5H18.8544C18.2919 22.5 18.0107 22.2188 18.0107 21.6562V18.8438ZM18.0107 27.8438C18.0107 27.4219 18.2919 27 18.8544 27H48.6669C49.0888 27 49.5107 27.4219 49.5107 27.8438V30.6562C49.5107 31.2188 49.0888 31.5 48.6669 31.5H18.8544C18.2919 31.5 18.0107 31.2188 18.0107 30.6562V27.8438ZM53.5888 63H13.5107C10.9794 63 9.01069 61.0312 9.01069 58.5C9.01069 56.1094 10.9794 54 13.5107 54H53.5888C53.3076 56.5312 53.3076 60.6094 53.5888 63Z" fill="#EB4335"/>
</svg>
