<svg width="55" height="64" viewBox="0 0 63 72" fill="none" xmlns="http://www.w3.org/2000/svg">
<path d="M63 50.625V3.375C63 1.54688 61.4531 0 59.625 0H13.5C6.04688 0 0 6.04688 0 13.5V58.5C0 65.9531 6.04688 72 13.5 72H59.625C61.4531 72 63 70.5938 63 68.625V66.375C63 65.3906 62.4375 64.4062 61.7344 63.8438C61.0312 61.5938 61.0312 55.4062 61.7344 53.2969C62.4375 52.7344 63 51.75 63 50.625ZM18 18.8438C18 18.4219 18.2812 18 18.8438 18H48.6562C49.0781 18 49.5 18.4219 49.5 18.8438V21.6562C49.5 22.2188 49.0781 22.5 48.6562 22.5H18.8438C18.2812 22.5 18 22.2188 18 21.6562V18.8438ZM18 27.8438C18 27.4219 18.2812 27 18.8438 27H48.6562C49.0781 27 49.5 27.4219 49.5 27.8438V30.6562C49.5 31.2188 49.0781 31.5 48.6562 31.5H18.8438C18.2812 31.5 18 31.2188 18 30.6562V27.8438ZM53.5781 63H13.5C10.9688 63 9 61.0312 9 58.5C9 56.1094 10.9688 54 13.5 54H53.5781C53.2969 56.5312 53.2969 60.6094 53.5781 63Z" fill="#2F80ED"/>
</svg>
