<svg width="18" height="18" viewBox="0 0 18 18" fill="none" xmlns="http://www.w3.org/2000/svg">
<path d="M9.04189 0.53125C4.22548 0.53125 0.323141 4.43359 0.323141 9.25C0.323141 14.0664 4.22548 17.9688 9.04189 17.9688C13.8583 17.9688 17.7606 14.0664 17.7606 9.25C17.7606 4.43359 13.8583 0.53125 9.04189 0.53125ZM14.1044 10.2344C14.1044 10.4805 13.8935 10.6562 13.6825 10.6562H10.4481V13.8906C10.4481 14.1367 10.2372 14.3125 10.0263 14.3125H8.05752C7.81142 14.3125 7.63564 14.1367 7.63564 13.8906V10.6562H4.40127C4.15517 10.6562 3.97939 10.4805 3.97939 10.2344V8.26562C3.97939 8.05469 4.15517 7.84375 4.40127 7.84375H7.63564V4.60938C7.63564 4.39844 7.81142 4.1875 8.05752 4.1875H10.0263C10.2372 4.1875 10.4481 4.39844 10.4481 4.60938V7.84375H13.6825C13.8935 7.84375 14.1044 8.05469 14.1044 8.26562V10.2344Z" fill="#2F80ED"/>
</svg>
