<svg width="168" height="30" viewBox="0 0 168 30" fill="none" xmlns="http://www.w3.org/2000/svg">
<rect x="0.5" y="0.5" width="167" height="29" rx="9.5" fill="#F6F6F6" stroke="#EB4335"/>
<path d="M41.2473 19.2139L44.4993 9.20312H46.9426L42.3372 22H40.1838L35.5959 9.20312H38.0305L41.2473 19.2139ZM51.9875 22.1758C50.634 22.1758 49.5354 21.751 48.6917 20.9014C47.8538 20.0459 47.4348 18.9092 47.4348 17.4912V17.2275C47.4348 16.2783 47.6165 15.4316 47.9797 14.6875C48.3489 13.9375 48.8645 13.3545 49.5266 12.9385C50.1887 12.5225 50.927 12.3145 51.7415 12.3145C53.0364 12.3145 54.0354 12.7275 54.7385 13.5537C55.4475 14.3799 55.802 15.5488 55.802 17.0605V17.9219H49.5881C49.6526 18.707 49.9133 19.3281 50.3704 19.7852C50.8333 20.2422 51.4133 20.4707 52.1106 20.4707C53.0891 20.4707 53.886 20.0752 54.5012 19.2842L55.6526 20.3828C55.2717 20.9512 54.762 21.3936 54.1233 21.71C53.4905 22.0205 52.7786 22.1758 51.9875 22.1758ZM51.7327 14.0283C51.1467 14.0283 50.6721 14.2334 50.3088 14.6436C49.9514 15.0537 49.7229 15.625 49.6233 16.3574H53.6926V16.1992C53.6458 15.4844 53.4553 14.9453 53.1213 14.582C52.7874 14.2129 52.3245 14.0283 51.7327 14.0283ZM62.4465 14.4414C62.1653 14.3945 61.8752 14.3711 61.5764 14.3711C60.5979 14.3711 59.9387 14.7461 59.5989 15.4961V22H57.4631V12.4902H59.5022L59.5549 13.5537C60.0706 12.7275 60.7854 12.3145 61.6995 12.3145C62.0042 12.3145 62.2561 12.3555 62.4553 12.4375L62.4465 14.4414ZM71.3674 9.20312L75.0588 19.0117L78.7415 9.20312H81.6155V22H79.4006V17.7812L79.6204 12.1387L75.8411 22H74.2502L70.4797 12.1475L70.6995 17.7812V22H68.4846V9.20312H71.3674ZM88.2336 22.1758C86.8801 22.1758 85.7815 21.751 84.9377 20.9014C84.0999 20.0459 83.6809 18.9092 83.6809 17.4912V17.2275C83.6809 16.2783 83.8625 15.4316 84.2258 14.6875C84.595 13.9375 85.1106 13.3545 85.7727 12.9385C86.4348 12.5225 87.1731 12.3145 87.9875 12.3145C89.2825 12.3145 90.2815 12.7275 90.9846 13.5537C91.6936 14.3799 92.0481 15.5488 92.0481 17.0605V17.9219H85.8342C85.8987 18.707 86.1594 19.3281 86.6165 19.7852C87.0793 20.2422 87.6594 20.4707 88.3567 20.4707C89.3352 20.4707 90.1321 20.0752 90.7473 19.2842L91.8987 20.3828C91.5178 20.9512 91.0081 21.3936 90.3694 21.71C89.7366 22.0205 89.0247 22.1758 88.2336 22.1758ZM87.9788 14.0283C87.3928 14.0283 86.9182 14.2334 86.5549 14.6436C86.1975 15.0537 85.969 15.625 85.8694 16.3574H89.9387V16.1992C89.8918 15.4844 89.7014 14.9453 89.3674 14.582C89.0334 14.2129 88.5706 14.0283 87.9788 14.0283ZM95.6956 12.4902L95.7571 13.5889C96.4602 12.7393 97.3831 12.3145 98.5256 12.3145C100.506 12.3145 101.514 13.4482 101.549 15.7158V22H99.4133V15.8389C99.4133 15.2354 99.2815 14.79 99.0178 14.5029C98.76 14.21 98.3352 14.0635 97.7434 14.0635C96.8821 14.0635 96.2405 14.4531 95.8186 15.2324V22H93.6829V12.4902H95.6956ZM109.064 19.416C109.064 19.0352 108.906 18.7451 108.589 18.5459C108.279 18.3467 107.76 18.1709 107.033 18.0186C106.307 17.8662 105.7 17.6729 105.214 17.4385C104.148 16.9229 103.615 16.1758 103.615 15.1973C103.615 14.377 103.96 13.6914 104.652 13.1406C105.343 12.5898 106.222 12.3145 107.288 12.3145C108.425 12.3145 109.342 12.5957 110.039 13.1582C110.742 13.7207 111.094 14.4502 111.094 15.3467H108.958C108.958 14.9365 108.806 14.5967 108.501 14.3271C108.197 14.0518 107.792 13.9141 107.288 13.9141C106.82 13.9141 106.436 14.0225 106.137 14.2393C105.844 14.4561 105.698 14.7461 105.698 15.1094C105.698 15.4375 105.835 15.6924 106.111 15.874C106.386 16.0557 106.943 16.2402 107.781 16.4277C108.618 16.6094 109.275 16.8291 109.749 17.0869C110.23 17.3389 110.584 17.6436 110.813 18.001C111.047 18.3584 111.164 18.792 111.164 19.3018C111.164 20.1572 110.81 20.8516 110.101 21.3848C109.392 21.9121 108.463 22.1758 107.315 22.1758C106.535 22.1758 105.841 22.0352 105.232 21.7539C104.622 21.4727 104.148 21.0859 103.808 20.5938C103.468 20.1016 103.298 19.5713 103.298 19.0029H105.372C105.402 19.5068 105.592 19.8965 105.944 20.1719C106.295 20.4414 106.761 20.5762 107.341 20.5762C107.904 20.5762 108.331 20.4707 108.624 20.2598C108.917 20.043 109.064 19.7617 109.064 19.416ZM118.714 22C118.62 21.8184 118.538 21.5225 118.468 21.1123C117.788 21.8213 116.956 22.1758 115.972 22.1758C115.017 22.1758 114.238 21.9033 113.634 21.3584C113.031 20.8135 112.729 20.1396 112.729 19.3369C112.729 18.3232 113.104 17.5469 113.854 17.0078C114.61 16.4629 115.688 16.1904 117.088 16.1904H118.398V15.5664C118.398 15.0742 118.26 14.6816 117.985 14.3887C117.709 14.0898 117.29 13.9404 116.728 13.9404C116.241 13.9404 115.843 14.0635 115.532 14.3096C115.222 14.5498 115.067 14.8574 115.067 15.2324H112.931C112.931 14.7109 113.104 14.2246 113.449 13.7734C113.795 13.3164 114.264 12.959 114.856 12.7012C115.453 12.4434 116.118 12.3145 116.851 12.3145C117.964 12.3145 118.852 12.5957 119.514 13.1582C120.176 13.7148 120.516 14.5 120.533 15.5137V19.8027C120.533 20.6582 120.654 21.3408 120.894 21.8506V22H118.714ZM116.367 20.4619C116.789 20.4619 117.185 20.3594 117.554 20.1543C117.929 19.9492 118.21 19.6738 118.398 19.3281V17.5352H117.246C116.455 17.5352 115.861 17.6729 115.462 17.9482C115.064 18.2236 114.865 18.6133 114.865 19.1172C114.865 19.5273 114.999 19.8555 115.269 20.1016C115.544 20.3418 115.91 20.4619 116.367 20.4619ZM122.397 17.1748C122.397 15.6982 122.742 14.5205 123.434 13.6416C124.131 12.7568 125.054 12.3145 126.202 12.3145C127.286 12.3145 128.139 12.6924 128.76 13.4482L128.857 12.4902H130.781V21.71C130.781 22.958 130.392 23.9424 129.613 24.6631C128.839 25.3838 127.793 25.7441 126.475 25.7441C125.778 25.7441 125.095 25.5977 124.427 25.3047C123.765 25.0176 123.261 24.6396 122.915 24.1709L123.926 22.8877C124.582 23.667 125.391 24.0566 126.352 24.0566C127.061 24.0566 127.62 23.8633 128.031 23.4766C128.441 23.0957 128.646 22.5332 128.646 21.7891V21.1475C128.031 21.833 127.21 22.1758 126.185 22.1758C125.072 22.1758 124.16 21.7334 123.451 20.8486C122.748 19.9639 122.397 18.7393 122.397 17.1748ZM124.524 17.3594C124.524 18.3145 124.717 19.0674 125.104 19.6182C125.496 20.1631 126.038 20.4355 126.73 20.4355C127.591 20.4355 128.23 20.0664 128.646 19.3281V15.1445C128.241 14.4238 127.609 14.0635 126.747 14.0635C126.044 14.0635 125.496 14.3418 125.104 14.8984C124.717 15.4551 124.524 16.2754 124.524 17.3594ZM137.171 22.1758C135.818 22.1758 134.719 21.751 133.875 20.9014C133.037 20.0459 132.618 18.9092 132.618 17.4912V17.2275C132.618 16.2783 132.8 15.4316 133.163 14.6875C133.532 13.9375 134.048 13.3545 134.71 12.9385C135.372 12.5225 136.111 12.3145 136.925 12.3145C138.22 12.3145 139.219 12.7275 139.922 13.5537C140.631 14.3799 140.986 15.5488 140.986 17.0605V17.9219H134.772C134.836 18.707 135.097 19.3281 135.554 19.7852C136.017 20.2422 136.597 20.4707 137.294 20.4707C138.273 20.4707 139.07 20.0752 139.685 19.2842L140.836 20.3828C140.455 20.9512 139.946 21.3936 139.307 21.71C138.674 22.0205 137.962 22.1758 137.171 22.1758ZM136.916 14.0283C136.33 14.0283 135.856 14.2334 135.492 14.6436C135.135 15.0537 134.906 15.625 134.807 16.3574H138.876V16.1992C138.829 15.4844 138.639 14.9453 138.305 14.582C137.971 14.2129 137.508 14.0283 136.916 14.0283ZM144.633 12.4902L144.695 13.5889C145.398 12.7393 146.321 12.3145 147.463 12.3145C149.444 12.3145 150.451 13.4482 150.487 15.7158V22H148.351V15.8389C148.351 15.2354 148.219 14.79 147.955 14.5029C147.698 14.21 147.273 14.0635 146.681 14.0635C145.82 14.0635 145.178 14.4531 144.756 15.2324V22H142.62V12.4902H144.633ZM158.001 19.416C158.001 19.0352 157.843 18.7451 157.527 18.5459C157.216 18.3467 156.698 18.1709 155.971 18.0186C155.244 17.8662 154.638 17.6729 154.152 17.4385C153.085 16.9229 152.552 16.1758 152.552 15.1973C152.552 14.377 152.898 13.6914 153.589 13.1406C154.281 12.5898 155.159 12.3145 156.226 12.3145C157.363 12.3145 158.28 12.5957 158.977 13.1582C159.68 13.7207 160.031 14.4502 160.031 15.3467H157.896C157.896 14.9365 157.743 14.5967 157.439 14.3271C157.134 14.0518 156.73 13.9141 156.226 13.9141C155.757 13.9141 155.373 14.0225 155.074 14.2393C154.781 14.4561 154.635 14.7461 154.635 15.1094C154.635 15.4375 154.773 15.6924 155.048 15.874C155.323 16.0557 155.88 16.2402 156.718 16.4277C157.556 16.6094 158.212 16.8291 158.687 17.0869C159.167 17.3389 159.522 17.6436 159.75 18.001C159.985 18.3584 160.102 18.792 160.102 19.3018C160.102 20.1572 159.747 20.8516 159.038 21.3848C158.329 21.9121 157.401 22.1758 156.252 22.1758C155.473 22.1758 154.779 22.0352 154.169 21.7539C153.56 21.4727 153.085 21.0859 152.745 20.5938C152.406 20.1016 152.236 19.5713 152.236 19.0029H154.31C154.339 19.5068 154.53 19.8965 154.881 20.1719C155.233 20.4414 155.698 20.5762 156.279 20.5762C156.841 20.5762 157.269 20.4707 157.562 20.2598C157.855 20.043 158.001 19.7617 158.001 19.416Z" fill="#EB4335"/>
<path d="M19.0745 6.53125C14.2581 6.53125 10.3557 10.4336 10.3557 15.25C10.3557 20.0664 14.2581 23.9688 19.0745 23.9688C23.8909 23.9688 27.7932 20.0664 27.7932 15.25C27.7932 10.4336 23.8909 6.53125 19.0745 6.53125ZM24.137 16.2344C24.137 16.4805 23.926 16.6562 23.7151 16.6562H20.4807V19.8906C20.4807 20.1367 20.2698 20.3125 20.0588 20.3125H18.0901C17.844 20.3125 17.6682 20.1367 17.6682 19.8906V16.6562H14.4338C14.1878 16.6562 14.012 16.4805 14.012 16.2344V14.2656C14.012 14.0547 14.1878 13.8438 14.4338 13.8438H17.6682V10.6094C17.6682 10.3984 17.844 10.1875 18.0901 10.1875H20.0588C20.2698 10.1875 20.4807 10.3984 20.4807 10.6094V13.8438H23.7151C23.926 13.8438 24.137 14.0547 24.137 14.2656V16.2344Z" fill="#EB4335"/>
</svg>
