<svg width="82" height="64" viewBox="0 0 82 64" fill="none" xmlns="http://www.w3.org/2000/svg">
<path d="M74.2692 0.5H6.76923C2.97235 0.5 0.0192261 3.59375 0.0192261 7.25V9.5H81.0192V7.25C81.0192 3.59375 77.9255 0.5 74.2692 0.5ZM0.0192261 56.75C0.0192261 60.5469 2.97235 63.5 6.76923 63.5H74.2692C77.9255 63.5 81.0192 60.5469 81.0192 56.75V14H0.0192261V56.75ZM49.5192 24.125C49.5192 23.5625 49.9411 23 50.6442 23H70.8942C71.4567 23 72.0192 23.5625 72.0192 24.125V26.375C72.0192 27.0781 71.4567 27.5 70.8942 27.5H50.6442C49.9411 27.5 49.5192 27.0781 49.5192 26.375V24.125ZM49.5192 33.125C49.5192 32.5625 49.9411 32 50.6442 32H70.8942C71.4567 32 72.0192 32.5625 72.0192 33.125V35.375C72.0192 36.0781 71.4567 36.5 70.8942 36.5H50.6442C49.9411 36.5 49.5192 36.0781 49.5192 35.375V33.125ZM49.5192 42.125C49.5192 41.5625 49.9411 41 50.6442 41H70.8942C71.4567 41 72.0192 41.5625 72.0192 42.125V44.375C72.0192 45.0781 71.4567 45.5 70.8942 45.5H50.6442C49.9411 45.5 49.5192 45.0781 49.5192 44.375V42.125ZM24.7692 23C29.6911 23 33.7692 27.0781 33.7692 32C33.7692 37.0625 29.6911 41 24.7692 41C19.7067 41 15.7692 37.0625 15.7692 32C15.7692 27.0781 19.7067 23 24.7692 23ZM9.4411 51.8281C10.5661 48.1719 13.9411 45.5 18.0192 45.5H19.1442C20.8317 46.3438 22.6599 46.625 24.7692 46.625C26.738 46.625 28.5661 46.3438 30.2536 45.5H31.5192C35.4567 45.5 38.8317 48.1719 39.9567 51.8281C40.5192 53.2344 39.2536 54.5 37.8474 54.5H11.5505C10.1442 54.5 8.8786 53.0938 9.4411 51.8281Z" fill="#EB4335"/>
</svg>
