<svg width="60" height="60" viewBox="0 0 88 88" fill="none" xmlns="http://www.w3.org/2000/svg">
<circle cx="1" cy="1" r="1" fill="white"/>
<path d="M34.1562 40.9688C34.3672 41.1797 34.6484 41.3203 34.9297 41.3203C35.2812 41.3203 35.5625 41.1797 35.7734 40.9688L42.5938 33.9375C44.5625 31.8984 44.4219 28.5234 42.2422 26.625C40.2734 25.0078 37.4609 25.2891 35.6328 27.1172L35 27.8203L34.2969 27.1172C32.5391 25.2891 29.6562 25.0078 27.6875 26.625C25.5078 28.5234 25.3672 31.8984 27.3359 33.9375L34.1562 40.9688ZM44.2812 48H40.9062L40.4141 47.0156C40.1328 46.3125 39.4297 45.75 38.5859 45.75H33.5938C32.75 45.75 32.0469 46.3125 31.7656 47.0156L31.2734 48H27.8984C26.8438 48 26 48.9141 26 49.9688V59.6016C26 60.6562 26.8438 61.5 27.8984 61.5H44.2812C45.3359 61.5 46.25 60.6562 46.25 59.6016V49.9688C46.25 48.9141 45.3359 48 44.2812 48ZM36.125 58.4062C34.0859 58.4062 32.4688 56.7891 32.4688 54.75C32.4688 52.7812 34.0859 51.0938 36.125 51.0938C38.0938 51.0938 39.7812 52.7812 39.7812 54.75C39.7812 56.7891 38.0938 58.4062 36.125 58.4062ZM61.0859 50.3203H56.7969L58.4141 46.7344C58.5547 46.2422 58.1328 45.8203 57.5703 45.8203H52.2266C51.8047 45.8203 51.3828 46.1016 51.3125 46.4531L50.1875 53.9766C50.1172 54.3984 50.4688 54.8203 51.0312 54.8203H55.3906L53.7031 60.6562C53.5625 61.0781 53.9844 61.5 54.5469 61.5C54.6172 61.5 54.6172 61.5 54.6172 61.5C54.8984 61.5 55.1797 61.3594 55.3203 61.1484L61.8594 51.375C62.2109 50.8828 61.7891 50.3203 61.0859 50.3203ZM59.6094 25.5703L49.1328 27.1875C48.0781 27.3281 47.375 28.2422 47.375 29.3672V36.8906C46.9531 36.8203 46.6016 36.75 46.25 36.75C43.7188 36.75 41.75 38.2969 41.75 40.125C41.75 42.0234 43.7188 43.5 46.25 43.5C48.7109 43.5 50.6797 42.0234 50.75 40.1953V32.5312L58.625 31.3359V34.6406C58.2031 34.5703 57.8516 34.5 57.5 34.5C54.9688 34.5 53 36.0469 53 37.875C53 39.7734 54.9688 41.25 57.5 41.25C59.9609 41.25 61.9297 39.7734 62 37.9453V27.75C62 26.4141 60.875 25.3594 59.6094 25.5703Z" fill="#61B52F"/>
</svg>
