<svg width="24" height="24" viewBox="0 0 24 24" fill="none" xmlns="http://www.w3.org/2000/svg">
<path d="M11.625 0C5.20312 0 0 5.25 0 11.625C0 18.0469 5.20312 23.25 11.625 23.25C18 23.25 23.25 18.0469 23.25 11.625C23.25 5.25 18 0 11.625 0ZM17.7188 5.53125C20.7656 8.625 21 13.3125 18.6562 16.5938L6.65625 4.59375C9.9375 2.25 14.625 2.48438 17.7188 5.53125ZM5.48438 17.7656C2.4375 14.6719 2.20312 9.98438 4.54688 6.70312L16.5469 18.7031C13.2656 21.0469 8.57812 20.8125 5.48438 17.7656Z" fill="#EB4335"/>
</svg>
