<svg width="56" height="22" viewBox="0 0 56 22" fill="none" xmlns="http://www.w3.org/2000/svg">
<path d="M21.6918 1.43547C19.1137 -0.767652 15.3168 -0.345777 12.9262 2.09172L12.0355 3.02922L11.098 2.09172C8.75429 -0.345777 4.91054 -0.767652 2.33241 1.43547C-0.620711 3.96672 -0.761336 8.46672 1.86366 11.1855L10.9574 20.5605C11.5199 21.1698 12.5043 21.1698 13.0668 20.5605L22.1605 11.1855C24.7855 8.46672 24.6449 3.96672 21.6918 1.43547Z" fill="#D4264B"/>
<path d="M27.9551 19.3184C27.9551 19.0254 27.8438 18.7988 27.6211 18.6387C27.4023 18.4746 27.0176 18.334 26.4668 18.2168C25.9199 18.0996 25.4844 17.959 25.1602 17.7949C24.8398 17.6309 24.6016 17.4355 24.4453 17.209C24.293 16.9824 24.2168 16.7129 24.2168 16.4004C24.2168 15.8809 24.4355 15.4414 24.873 15.082C25.3145 14.7227 25.877 14.543 26.5605 14.543C27.2793 14.543 27.8613 14.7285 28.3066 15.0996C28.7559 15.4707 28.9805 15.9453 28.9805 16.5234H27.8906C27.8906 16.2266 27.7637 15.9707 27.5098 15.7559C27.2598 15.541 26.9434 15.4336 26.5605 15.4336C26.166 15.4336 25.8574 15.5195 25.6348 15.6914C25.4121 15.8633 25.3008 16.0879 25.3008 16.3652C25.3008 16.627 25.4043 16.8242 25.6113 16.957C25.8184 17.0898 26.1914 17.2168 26.7305 17.3379C27.2734 17.459 27.7129 17.6035 28.0488 17.7715C28.3848 17.9395 28.6328 18.1426 28.793 18.3809C28.957 18.6152 29.0391 18.9023 29.0391 19.2422C29.0391 19.8086 28.8125 20.2637 28.3594 20.6074C27.9062 20.9473 27.3184 21.1172 26.5957 21.1172C26.0879 21.1172 25.6387 21.0273 25.248 20.8477C24.8574 20.668 24.5508 20.418 24.3281 20.0977C24.1094 19.7734 24 19.4238 24 19.0488H25.084C25.1035 19.4121 25.248 19.7012 25.5176 19.916C25.791 20.127 26.1504 20.2324 26.5957 20.2324C27.0059 20.2324 27.334 20.1504 27.5801 19.9863C27.8301 19.8184 27.9551 19.5957 27.9551 19.3184Z" fill="black"/>
<path d="M34.3652 21C34.3027 20.875 34.252 20.6523 34.2129 20.332C33.709 20.8555 33.1074 21.1172 32.4082 21.1172C31.7832 21.1172 31.2695 20.9414 30.8672 20.5898C30.4688 20.2344 30.2695 19.7852 30.2695 19.2422C30.2695 18.582 30.5195 18.0703 31.0195 17.707C31.5234 17.3398 32.2305 17.1562 33.1406 17.1562H34.1953V16.6582C34.1953 16.2793 34.082 15.9785 33.8555 15.7559C33.6289 15.5293 33.2949 15.416 32.8535 15.416C32.4668 15.416 32.1426 15.5137 31.8809 15.709C31.6191 15.9043 31.4883 16.1406 31.4883 16.418H30.3984C30.3984 16.1016 30.5098 15.7969 30.7324 15.5039C30.959 15.207 31.2637 14.9727 31.6465 14.8008C32.0332 14.6289 32.457 14.543 32.918 14.543C33.6484 14.543 34.2207 14.7266 34.6348 15.0938C35.0488 15.457 35.2637 15.959 35.2793 16.5996V19.5176C35.2793 20.0996 35.3535 20.5625 35.502 20.9062V21H34.3652ZM32.5664 20.1738C32.9062 20.1738 33.2285 20.0859 33.5332 19.9102C33.8379 19.7344 34.0586 19.5059 34.1953 19.2246V17.9238H33.3457C32.0176 17.9238 31.3535 18.3125 31.3535 19.0898C31.3535 19.4297 31.4668 19.6953 31.6934 19.8867C31.9199 20.0781 32.2109 20.1738 32.5664 20.1738Z" fill="black"/>
<path d="M38.1562 21H37.0723V12H38.1562V21Z" fill="black"/>
<path d="M41.9883 19.5293L43.5586 14.6602H44.666L42.3926 21H41.5664L39.2695 14.6602H40.377L41.9883 19.5293Z" fill="black"/>
<path d="M49.5293 21C49.4668 20.875 49.416 20.6523 49.377 20.332C48.873 20.8555 48.2715 21.1172 47.5723 21.1172C46.9473 21.1172 46.4336 20.9414 46.0312 20.5898C45.6328 20.2344 45.4336 19.7852 45.4336 19.2422C45.4336 18.582 45.6836 18.0703 46.1836 17.707C46.6875 17.3398 47.3945 17.1562 48.3047 17.1562H49.3594V16.6582C49.3594 16.2793 49.2461 15.9785 49.0195 15.7559C48.793 15.5293 48.459 15.416 48.0176 15.416C47.6309 15.416 47.3066 15.5137 47.0449 15.709C46.7832 15.9043 46.6523 16.1406 46.6523 16.418H45.5625C45.5625 16.1016 45.6738 15.7969 45.8965 15.5039C46.123 15.207 46.4277 14.9727 46.8105 14.8008C47.1973 14.6289 47.6211 14.543 48.082 14.543C48.8125 14.543 49.3848 14.7266 49.7988 15.0938C50.2129 15.457 50.4277 15.959 50.4434 16.5996V19.5176C50.4434 20.0996 50.5176 20.5625 50.666 20.9062V21H49.5293ZM47.7305 20.1738C48.0703 20.1738 48.3926 20.0859 48.6973 19.9102C49.002 19.7344 49.2227 19.5059 49.3594 19.2246V17.9238H48.5098C47.1816 17.9238 46.5176 18.3125 46.5176 19.0898C46.5176 19.4297 46.6309 19.6953 46.8574 19.8867C47.084 20.0781 47.375 20.1738 47.7305 20.1738Z" fill="black"/>
<path d="M55.207 15.6328C55.043 15.6055 54.8652 15.5918 54.6738 15.5918C53.9629 15.5918 53.4805 15.8945 53.2266 16.5V21H52.1426V14.6602H53.1973L53.2148 15.3926C53.5703 14.8262 54.0742 14.543 54.7266 14.543C54.9375 14.543 55.0977 14.5703 55.207 14.625V15.6328Z" fill="black"/>
</svg>
