<svg width="37" height="37" viewBox="0 0 37 37" fill="none" xmlns="http://www.w3.org/2000/svg">
<path d="M36.0078 31.6484L28.9766 24.6172C28.625 24.3359 28.2031 24.125 27.7812 24.125H26.6562C28.5547 21.6641 29.75 18.5703 29.75 15.125C29.75 7.10938 23.1406 0.5 15.125 0.5C7.03906 0.5 0.5 7.10938 0.5 15.125C0.5 23.2109 7.03906 29.75 15.125 29.75C18.5 29.75 21.5938 28.625 24.125 26.6562V27.8516C24.125 28.2734 24.2656 28.6953 24.6172 29.0469L31.5781 36.0078C32.2812 36.7109 33.3359 36.7109 33.9688 36.0078L35.9375 34.0391C36.6406 33.4062 36.6406 32.3516 36.0078 31.6484ZM15.125 24.125C10.1328 24.125 6.125 20.1172 6.125 15.125C6.125 10.2031 10.1328 6.125 15.125 6.125C20.0469 6.125 24.125 10.2031 24.125 15.125C24.125 20.1172 20.0469 24.125 15.125 24.125Z" fill="#61B52F"/>
</svg>
