<svg width="50" height="52" viewBox="0 0 50 52" fill="none" xmlns="http://www.w3.org/2000/svg">
<path d="M23.25 4.75C10.4062 4.75 0 15.1562 0 28C0 40.8438 10.4062 51.25 23.25 51.25C36.0938 51.25 46.5 40.8438 46.5 28C46.5 15.1562 36.0938 4.75 23.25 4.75ZM23.25 13.75C27.75 13.75 31.5 17.5 31.5 22C31.5 26.5938 27.75 30.25 23.25 30.25C18.6562 30.25 15 26.5938 15 22C15 17.5 18.6562 13.75 23.25 13.75ZM23.25 46C17.7188 46 12.75 43.5625 9.46875 39.625C11.25 36.3438 14.7188 34 18.75 34C18.9375 34 19.125 34.0938 19.4062 34.1875C20.625 34.5625 21.8438 34.75 23.25 34.75C24.5625 34.75 25.875 34.5625 27 34.1875C27.2812 34.0938 27.4688 34 27.75 34C31.6875 34 35.1562 36.3438 36.9375 39.625C33.6562 43.5625 28.6875 46 23.25 46Z" fill="#4285F4"/>
</svg>
